<svg xmlns="http://www.w3.org/2000/svg" width="1600" height="390" viewBox="0 0 1600 390"><rect width="1600" height="390" rx="24" fill="#0b0f14"/><rect x="1" y="1" width="1598" height="388" rx="23" fill="none" stroke="#30363d"/><g font-family="Arial,Helvetica,sans-serif"><text x="52" y="48" fill="#8b949e" font-size="12" letter-spacing="4">OPERATING SYSTEM / HOW AN IDEA BECOMES REAL</text><g fill="#f0f6fc" text-anchor="middle"><g><circle cx="170" cy="180" r="52" fill="#11161d" stroke="#596575"/><text x="170" y="176" font-size="13" font-weight="700">01 IDEA</text><text x="170" y="197" fill="#8b949e" font-size="10">QUESTION</text></g><g><circle cx="480" cy="180" r="52" fill="#11161d" stroke="#596575"/><text x="480" y="176" font-size="13" font-weight="700">02 CONTEXT</text><text x="480" y="197" fill="#8b949e" font-size="10">FIELD</text></g><g><circle cx="790" cy="180" r="52" fill="#11161d" stroke="#596575"/><text x="790" y="176" font-size="13" font-weight="700">03 SYSTEM</text><text x="790" y="197" fill="#8b949e" font-size="10">ARCHITECTURE</text></g><g><circle cx="1100" cy="180" r="52" fill="#11161d" stroke="#596575"/><text x="1100" y="176" font-size="13" font-weight="700">04 BUILD</text><text x="1100" y="197" fill="#8b949e" font-size="10">EXECUTION</text></g><g><circle cx="1410" cy="180" r="52" fill="#11161d" stroke="#f0f6fc"/><text x="1410" y="176" font-size="13" font-weight="700">05 VERIFY</text><text x="1410" y="197" fill="#8b949e" font-size="10">EVIDENCE</text></g></g><g stroke="#596575" stroke-width="2" fill="none"><path d="M222 180h206m104 0h206m104 0h206m104 0h206"/><path d="M416 170l12 10-12 10M726 170l12 10-12 10M1036 170l12 10-12 10M1346 170l12 10-12 10"/></g><text x="800" y="285" text-anchor="middle" fill="#f0f6fc" font-size="15" letter-spacing="3">OBSERVE REALITY  /  REFINE THE MODEL</text><text x="800" y="316" text-anchor="middle" fill="#8b949e" font-size="11">Clarity · Boundaries · Evidence · Iteration · Usefulness · Legibility</text></g></svg>